/* XPM */
static char *_cf0a75fa92541bda06bc8d2aed6915b391kQyAJxNuHw99P[] = {
/* columns rows colors chars-per-pixel */
"64 64 244 2 ",
"   c #15041A",
".  c #1D041D",
"X  c #1A1717",
"o  c #1A1917",
"O  c #1D171A",
"+  c #1C191A",
"@  c #210114",
"#  c #23031D",
"$  c #2A031E",
"%  c #31021F",
"&  c #21171C",
"*  c #201D1C",
"=  c #23211E",
"-  c #1D0523",
";  c #1D062A",
":  c #1D0739",
">  c #230523",
",  c #2B0424",
"<  c #24062B",
"1  c #2B062C",
"2  c #24092D",
"3  c #280D2A",
"4  c #330225",
"5  c #3C0127",
"6  c #34042C",
"7  c #3B032C",
"8  c #271925",
"9  c #250633",
"0  c #2D0732",
"q  c #260832",
"w  c #2C0834",
"e  c #24063C",
"r  c #2B063A",
"t  c #2D093B",
"y  c #330634",
"u  c #3B0535",
"i  c #320A35",
"p  c #390E34",
"a  c #35063B",
"s  c #3C063B",
"d  c #33093B",
"f  c #3A0B3D",
"g  c #2C1134",
"h  c #2D173A",
"j  c #371838",
"k  c #252321",
"l  c #2A2623",
"z  c #2E2A25",
"x  c #2E2928",
"c  c #302C27",
"v  c #32272B",
"b  c #322D29",
"n  c #35322E",
"m  c #38342F",
"M  c #382536",
"N  c #353330",
"B  c #3A3632",
"V  c #3E3935",
"C  c #3E323E",
"Z  c #430023",
"A  c #44012C",
"S  c #4A002E",
"D  c #440233",
"F  c #4B0134",
"G  c #43043B",
"H  c #4C023B",
"J  c #490C3A",
"K  c #520236",
"L  c #53013C",
"P  c #5A013C",
"I  c #451B3A",
"U  c #55183D",
"Y  c #45203D",
"T  c #413C37",
"R  c #423E39",
"E  c #45413C",
"W  c #49433E",
"Q  c #1D0846",
"!  c #240545",
"~  c #230844",
"^  c #2C0944",
"/  c #24074A",
"(  c #2A054A",
")  c #24094C",
"_  c #2C094C",
"`  c #340A44",
"'  c #32054C",
"]  c #3A0648",
"[  c #330A4A",
"{  c #3A0A4C",
"}  c #2D1648",
"|  c #3A1446",
" . c #2B0A55",
".. c #390755",
"X. c #330953",
"o. c #3B0A5C",
"O. c #3A1456",
"+. c #372152",
"@. c #3B0C62",
"#. c #3A0965",
"$. c #3D1560",
"%. c #430543",
"&. c #4C0344",
"*. c #430845",
"=. c #48074D",
"-. c #540243",
";. c #5B0144",
":. c #53054C",
">. c #5C024A",
",. c #550C49",
"<. c #471B45",
"1. c #561D47",
"2. c #480657",
"3. c #420953",
"4. c #580557",
"5. c #471457",
"6. c #551A55",
"7. c #630144",
"8. c #64014B",
"9. c #6B014C",
"0. c #660A4C",
"q. c #71014E",
"w. c #641E4D",
"e. c #670457",
"r. c #6B015B",
"t. c #740153",
"y. c #7B0155",
"u. c #76065A",
"i. c #7C015B",
"p. c #661D54",
"a. c #741B59",
"s. c #492549",
"d. c #55244B",
"f. c #443244",
"g. c #493947",
"h. c #4C344D",
"j. c #4D3B4C",
"k. c #54374B",
"l. c #482954",
"z. c #562853",
"x. c #4A3557",
"c. c #533253",
"v. c #5B3454",
"b. c #533C53",
"n. c #543D5C",
"m. c #593858",
"M. c #6F2C59",
"N. c #633C55",
"B. c #643B59",
"V. c #490667",
"C. c #440A62",
"Z. c #560567",
"A. c #45126A",
"S. c #551B64",
"D. c #4B0775",
"F. c #580575",
"G. c #491278",
"H. c #670367",
"J. c #6B026D",
"K. c #780267",
"L. c #641D67",
"P. c #771C66",
"I. c #640577",
"U. c #6A017A",
"Y. c #7D0173",
"T. c #770278",
"R. c #6A1C7D",
"E. c #7A1C77",
"W. c #552268",
"Q. c #563A67",
"!. c #52306C",
"~. c #673E6B",
"^. c #763666",
"/. c #662272",
"(. c #683B76",
"). c #763975",
"_. c #464340",
"`. c #474441",
"'. c #484542",
"]. c #4E414B",
"[. c #53444E",
"{. c #4F4457",
"}. c #544353",
"|. c #5A4354",
" X c #564B57",
".X c #54455C",
"XX c #5B445B",
"oX c #585555",
"OX c #66445B",
"+X c #605F5D",
"@X c #5B4768",
"#X c #684568",
"$X c #784469",
"%X c #6A4575",
"&X c #764376",
"*X c #656361",
"=X c #850159",
"-X c #83015C",
";X c #860366",
":X c #8B0163",
">X c #93026A",
",X c #85156C",
"<X c #850178",
"1X c #A9007A",
"2X c #8C4476",
"3X c #874678",
"4X c #5A0583",
"5X c #581482",
"6X c #680686",
"7X c #750587",
"8X c #781B84",
"9X c #790698",
"0X c #7C3E87",
"qX c #7B01A7",
"wX c #88028A",
"eX c #960289",
"rX c #8E1C8F",
"tX c #880495",
"yX c #980399",
"uX c #A40289",
"iX c #B30183",
"pX c #A70299",
"aX c #B60197",
"sX c #8B01A4",
"dX c #9504A6",
"fX c #930DAD",
"gX c #A602AA",
"hX c #AB13AC",
"jX c #A903B6",
"kX c #B801B8",
"lX c #C70094",
"zX c #C30EBF",
"xX c #824484",
"cX c #994782",
"vX c #A14286",
"bX c #BD01C0",
"nX c #C601C8",
"mX c #CC1CCB",
"MX c #C801D7",
"NX c #D801DA",
"BX c #DC02DE",
"VX c #E701E8",
"CX c #ED01F4",
"ZX c #F900FA",
/* pixels */
"`.'.'.`.'.`.'.`.`.`.'.'.'.'.`.'.'.'.`.'.'.`.'.`.'.`.`.'.`.'.`.'.`.'.'.`.'.'.`.'.`.'.`.`.`.`.`.'.`.'.'.'.'.'.`.'.`.`.'.'.'.'.'.`.",
"'.'._._._._.`.`.'.`._._._._._.`._._._._._.`._._.'._._._._._.`._._._._._._._._._.`._._._.`._._._.`._.`._._._._.'.`.E `.`._._.`.'.",
"'.`.V N N N B E E V N N N N N N N N N N n N V V R B n N N N N N N N N N N N N V R V N N N N N N N N N N N n N V R B N N N V `.`.",
"'._.n k + + B R R m + o + + o o o o + o o + c m T c + o o o o o o + o o o * z n B n * o o + o o o o + o + + c B B n + + k N _.`.",
"`._.N + M j b R T n ].k.^.^.M.v.M.v.v.k.k. XV R V B ].l.x.x.m.c.c.c.c.c.c.}.n B V n  Xm.k.N.^.^.).).^.^.M.OXn V B c U J + N _.'.",
"'.`.N o p a b T R n I F y.:Xi.P 9.A 7 6 5 k.m B V B f.u V.a y 6 1 a y a a h.B V W n b.4.&.-.t.:XY.;Xi.t.9.U c T B z ;.S + N _.'.",
"'._.N o g y b E R n Y P -X-XP >.9.7 4 % % k.B V R V v.y %.y 0 s a 0 0 0 i h.B V E B j.&.>.;.t.q.9.q.9.8.H I b E T z L D + N `.`.",
"'.`.N + g 2 x T T b d.9.-X-Xr.H H u Z.s 4 k.V V V V v.1 1 a 0 1 0 i i 0 0 h.N B V B j.$ H 9.7.t.9.8.>.-.4 I n V V n F 7 + N _.`.",
"`.E N o g > b T T b d.i.>XY.jXH.7 1 Z.y , j.B B n b v.s 0 a i w 0 y w w < f.B T T c j.# 4 t.9.P P L D 4 @ j z m B c 4.H + N `.`.",
"`._.N o g . l V T n 1.-Xy.H.T.H u > > 1 a b.B n n n v.] w i a w q 0 0 t q C B V T B j.> 6 q.:X>.&.&.e.T.J.j z m B c yXr.+ N `.`.",
"'._.N + g . k T E b a.i.t.8.&.7 1 1 > 1 r b.c n B V c.` t 2 w w q < > < a f.V T T n b.1 6 y.q.;.Z.yXdX7XfX/.z V V c hXaX+ N _.`.",
"'._.N o 3 ; z V R n ,X-Xq.L D , > , # 9 D.0XB V R B v.0 y i q 2 - . > - a m.B V T B b.6 5 y.9.4.7XU.{ %.o.R.n T V c 7XpX+ N `.'.",
"`._.N o 3 . b R T m a.-X7.F 6 a < 1 a o.X.n.n V E B c.i w a < r d ^ _ ^ w f.B T R B n.6 F =Xr.gXjX] u , 0 /.m V n z u.4.+ N `.'.",
"'._.N o 3 - v R E m ,X>X7.D 1 { r G.G./ 9 c.n B T V c.> w < { F.fXG.@.` 2 C R T R B b.u P -XT.dXtX&.4.Z.] 5.l T B z J *.+ N _.`.",
"`._.B l v 8 b T E V OXOXOX|.}.XX}.}..X}.].oXm B T V  Xg.b.n.Q.%X@XQ.{.j.b. XV T T n oXb.OX$X#X&X&XOX&X#X|.OXc T V c <.s.l V `.'.",
"`.`.R V T R V E E W R B E E R T V V R R V T R R T V V R R T E E V B V V V V V R T n V R T R R R R E R E E V R R T V R V T E `.`.",
"'._.V V V B B R T R B n T V B c B V n V B n V T V B B T V B B V B m V n c n V R V n n B B V V B V B m B T B T T B V B B R E `.`.",
"`._.n 8 h j z B V c +XOXXXXX}.].{.}.}.[.}. Xn c m V oX}.}.#X@X%X XXX@X.X.X{.B B V c oX[.#X$X#X#X#X$X&X%X%X#Xc V n l | j * N `.'.",
"`.`.N + _ g c V V c 2XK.I.7X3.{ r > 1 a 0 S.n B T T m., . f [  .~ 0 d / ~ } R T V B b.6 D ;XK.V.Y.eXF.D.6X8Xz T V n | w O N _.`.",
"`._.N + o.O.z T V c 2XY.Z.F...1 . , 2.I...I B B V V |.6 $ , ` _ #._ a *.^ +.V T V n XX1 $ -.;X:X:XuXV.D.F.R.c T B c g w + N _.'.",
"`._.N + [ | z T V n $XH.Z.I.#.C.Z.2 9XF.a <.B B V B OXG u 7 y ` X.) ! ~ a s.V V B b }.1 , -.e.H 7.>X4.( ..W.c R V z *.d + N _.`.",
"'._.N X > j z V V n 3X>.Z.2.#.D.6XI.6XI.I.6.B B n B $X;.G G u i =...~ Q ( l.V V B B }.y y *.s 7 D 8.:.! ' W.c T R B ,.2.+ N _.`.",
"`._.N X   g c V V c $XS Z.F.C.#.7X7X7XtXjX6.B V T V ^.-X>.s s *.*.=.=.=.3.+.V T V T b.0 0 y s u u u H e ' l.c V R n p y O N _.'.",
"'.`.N +   g V V B c 3XJ.9X9XI.V.tXZ.jXwXgXrXB V B B ^.:X-X;.u s s *.=.:.4.d.n V V B }.0 0 w y y y y G 2.' s.z T V c ,.G + N _.'.",
"'._.N + : w c T B c $X9.>.7XdXtXwX6XBXkXH.6.B n V B B.7.i.-X;.G u y y u G <.n B B V }.0 y 0 w > . # 1 3.4.s.c T R c ,.-.+ N _.`.",
"'._.N O X.g c T B z 3XtXzXJ.<XT.I.jXVXZXNXrXV B V B N.F F 7.y.;.F G G -.-.1.B V V V }.0 ; 2 2 < -   < a u s.c T R c J G + N _.`.",
"'._.N + o.5.c T B c cXsXZXNXY.-.jXMXZXCXVXmXV B V B N.P >.8.y.P D q.i.-X-Xa.B V V V }.w - - ^ A.~ 9 < s G d.c V V z J u O N `.`.",
"'._.N O a 5.c V B z cX9XpX<XkXkXkXnXVXnXeXP.V B V n (.wXeXi.P D L y.-X-Xy.P.V T V V ].t 9 ; 2 9 ; 9 0 6 H P.c R V c J.%.O N `.'.",
"`._.N X > g c n N b vX<XdXkXr.kXCXZXBXdXVXzXV V T V (.kXy.q.Z A P -Xt.9.L p.V V R T j.i @.@.> 2 . < a 6 ;.P.z V m c ;XH.O N `.'.",
"`._.N O 9 3 n V B c 2XaXqXMXpXe.nXNX7XNXVXhXB R V V (.pXwXnXnXr.A -Xu.7.L 1.n V R T ].> r  .5X{ 2 ; 0 $ t.a.z T B c 0.-X& N _.'.",
"`._.N O r g c V N z $XiXuXfXkXi.F F K.MX6XS.B T V B (.<XwXwXnXZXeX7.pXq.K 1.n B T T B.u , t A.5X^ 9 1 , >.w.k m B c 0.;.& N _.`.",
"'._.N + @.| z B B c ^.i.iXeXwXK.<Xe.9X9XU.P.V T V B (.yX<X<XU.bXNXH.uX;Xr.1.N B T V N.6 1 < d #.A.- 2 # F w.l V B n 7XK.& N _.'.",
"'._.N O o.} c B m c $Xr.y.:XwXyX<XsXqXgX<XP.n V B N ~.J.t.>XK.H.wX6X>XuXjXE.V V T V B.4 1 a ` [ A.. 2 , 7 U z R V n 7XwX& N _.'.",
"'.`.N O G.O.z N V z 3XgX9.=Xe.yX-.U.tXuXK.hXB V V n ~.( u -.e.t.K.F.:XlXsXhXT T R V B.D # i @.{ t . 0 d a d.c T V b H.4.O N _.`.",
"`._.N O #.A.c B V z 3X;X-Xt.-.r.G >.4.8.eXrXV R T B n.e a s u G 4.H.1X>XuXhXB n V V m.H 4 # { 5X< 1 0 d d l.z V m c e.:.O N `.'.",
"`._.N O ..A.k B V c $X>X:Xy.<XkXr.;.H 7.r.R.n V B n n.a a a 1 # s 9.1XeXyX,Xn n V V N.7.H , s o.q 0 0 y d l.z V N z f 0 + N _.`.",
"'.E N + X.O.l V V c $X:X:X;Xy.S r.S L ;.S S.B T B B b.u G a G 6 4 L 1XJ.r.P.B V T V B.F H u 6 2.0 w i s s s.c T R c i 1 + N _.'.",
"'._.N X ~ 5.c V V c $X-X-Xq.P F S S -.r.H <.B V B B b.y a a y , # D ;X=Xt.p.T R T T ~.:.-.%., :.&.0 y a a s.c V n z f y + N `.`.",
"'._.N O _ f c B V z $X7.9.9.<XJ.H S -.jXJ.1.N B V B |.y 1 1 i 1 , , K =Xy.1.V V V V ).<Xr.s 1 f G y 1 1 1 M b V V n f y X N `.'.",
"'._.N O ` p l B V z 3XF S <XkX9XgX4.&.7X7XL.B B B N m.s > > y 0 , # 4 =Xy.U B B V V B.-X8.u 6 6 0 1 t  .X.l.b R V c g a + N _.'.",
"'._.N O 6 J c V R c $XP pXMX7XI.yXU.:.e.sXE.B T V V }.y . < s a < , $ y.:Xp.B V V V b.;.9.y 1 , %.1 9 r _ W.l V B z 3 { 8 N `.'.",
"'.E N + y J c B B c $XyXCXtX' ] 4.Z.4.L F.8Xn N B T ].> < . > a y > $ q.>XE.B B B V b.S 7.%.y > ` o.D.#.#.!.c T B n } ` O N _.'.",
"'._.N O D 0.c B V c xXY.gXV.3.&.u -.yXU.H.L.B V V R }.1 0 - > w w 1 $ P 1X,XV V n V B.D ;.%.u , 2.o._ 3.' W.z V T c $.{ + N _.`.",
"'._.N O -.0.l n B c xXgX-.%.Z.tXV.2.7XT.T.L.N T V R }.y y 2 - 2 w i , P 1XE.R V V V ~.Z.>.%.u > *.C.^ ` ] l.c V V z X.3.+ N _.'.",
"'.`.N & -Xu.l B V c 3XsXgX5 H &.2.D.6XU.J.6.B B B V ].> - - - < 2 d , K iXP.V V B V ).Z.;.G y > ` X.` G._ l.z V V z _ 3.+ N _.`.",
"'._.N & :X0.c B n c 2X9XMXgXT.7XF.6X4XtXT.6.B n n T ~.9XG.: - - q d 6 5 >X,XV T V V ~.7Xe.G y . ` ' { C.) +.c V V z O.=.+ n _.'.",
"`.`.N 8 a.,Xc b c c *X).xXxX(.%X%X).%X&X#X Xn V c V oX%X#X@X{.{.}.}.|.[.OXOXV B B V oX~.&XXX|.[.}.XXXX.X.X Xc n B c <.<.8 B _.`.",
"`.`.E T B R V V V R R V E R T T R B E T B V T V B E E V E N V R V V R V B T E R R R R B B T R V B B V V V R R R R R V T E E _.'.",
"`._.V B T T V B V V T R R R R R T V R R N B R V N V E R R B V B T R R R V V T B m T V V R V R R B V R V V T V n n V T E V E `.`.",
"'.`.N = z.d.M V B l #XxX$X#X#X#X#X#X#XXX}.oXN m B B [.b.XX}.].g.j.j.j.b.j. XB n B B oX&X#X@X|.}.}.XX.X X.X Xc n n n a.a.8 N `.`.",
"'.`.N o 9X6Xx V V l fXdXnXkXU.Z.H.2.2.:.u h.V V n V x.A.A.( 9 - . . 1 y 1 f.R T V B ^.Z.C.=.y 1 0 o._ X.' <.c V B n ;Xy.O N _.'.",
"`._.N o 9XdXv V B l L.I.yXI.o.I.J.2.3.6 6 b.B n n B x.@.@. .)  .^ 9 < 1 i h.V B V B ^.:.a y u y 2  .o.C.y 1.z B B c u.i.& N `.'.",
"`.`.N o 6X4XM B n z p.] ..' ' 2.Z.' 1 > , j.n b B B h.0 q : !  .9 . > 1 y h.V V T V b.y 1 0 , > e X.C.` , <.z n n c u.8.+ N `.'.",
"`._.N o V.V.v B V c 6.%.! ! ' ..Z.0 , 0 1 g.n B T V h.0 > 1 - > r ; 2 - . f.T V R R j., 0 < . - . 9 2 y u 1.l N B c K.wX8 N `.'.",
"`._.N o V...v V V c d.X.F.! ' 2.3.y y 0 w j.V B V R Q.6X' ..! o.G. .Q / ..h.R B V V j., > , , < ^ t 1 > , w.c V T c tXMX8 N `.'.",
"'.`.N + ..! x T B z 1.' F.) [ 3.a y y d 1 g.V B T R Q.6X#.Q Q  . .Q Q ) 5X(.B V B B b.3.{ 2 9 { a - w > 6 p.z B B c uXsXO N `.`.",
"'.`.N o ^ ! b T V z j 3.6X' r y 1 u y d 0 Q.V B V R x.) ! / / _ / ( { ^ { n.V V B n n.D.A.) X.a > . < . , p.z B T n >XH.O N `.`.",
"`._.N + ` V.M T T z j 2 a # , 6 4 a %.*.[ n.B B V V h.e Q ! ..X.X.4.e.4.=.m.B m V B n.G.6X( < r e 9 t > . p.c V B z eXeX8 N _.`.",
"'._.N o p 2 b V R c <.> # . > , # > a 4.2.n.V B V V x.:.! / ) ) { *.G u s v.B B R B n.: e w C.I.< - - < 1 I c T V b F.7XO N _.`.",
"`.`.N + /.<.b T R b b.f.f.C f.h.h.f.f.h.v. XB V R B .Xx.l.x.x.x.l.h.d.d.z.|.B B V B  Xx.!.(.Q.(.Q.x.x.h.h.].c T T b e.6.O N _.'.",
"`._.n k + + n T R n + o + o o o o + o + o * n V V c * o o + o o o o o o o * c B B n = o o o o o o o o + + + n V V n + + k n `.'.",
"`.`.V N N N B R E V N N N N N N N N N N N N V R R V N N N N N n N N N N N N V R R V N N N N N N N N N N N N B V R V N N N V `.'.",
"'.`._._._.E _._.'.'.E _._._._.`.`._._.`._._.`.E _.`._._._._._.`.`.`.`._.`.`.`.`._.`._._.`._.`.`._._.`._._._._._.`.`._.`._.`.`.`.",
"'.`.'.'.'.`.'.`.'.'.'.'.'.'.`.'.`.`.'.`.'.'.`.`.'.`.`._.'.`.'.`.`.'.'.'.'.'.`.'.`.`.'.'.`.`.`.'.'.`.`.`.'.'.'.`.'.`.`.'.`.'.'.`."
};
