/* XPM */
static char *ba9eac45275d4f359a7da658574ac319nma8ueCVcVCGq4ZZ[] = {
/* columns rows colors chars-per-pixel */
"64 64 51 1 ",
"  c #070100",
". c #090200",
"X c #0E0500",
"o c #110700",
"O c #130800",
"+ c #160A00",
"@ c #1A0D02",
"# c #1C0E02",
"$ c #1F1003",
"% c #201104",
"& c #261505",
"* c #291706",
"= c #2B1907",
"- c #2E1B08",
"; c #2F1C09",
": c #311D09",
"> c #341F0A",
", c #37210B",
"< c #3A230C",
"1 c #3B240D",
"2 c #3D250D",
"3 c #40270E",
"4 c #41280F",
"5 c #422910",
"6 c #452911",
"7 c #482B12",
"8 c #4A2C12",
"9 c #4D2E13",
"0 c #4E2F14",
"q c #4F3014",
"w c #523215",
"e c #553416",
"r c #583617",
"t c #593718",
"y c #5B3818",
"u c #5D3A1A",
"i c #623D1B",
"p c #633E1C",
"a c #653F1C",
"s c #66401D",
"d c #69421E",
"f c #6E451F",
"g c #6F4620",
"h c #714720",
"j c #734921",
"k c #764B22",
"l c #774C23",
"z c #7B4E25",
"x c #7E5026",
"c c #835327",
"v c #875629",
/* pixels */
"oO+##%&=;:,;%#++OooXX.XXXoo+++oo+@&&=:111,:*#++oooXooooXXO@+++@+",
"**=====*&&%&=;:;*&%###%#%*=-::--:=&&&%%%&-:,,:;::-=*&&%&*&&&%&&*",
"*&&****=====:,:=*=;,,,::-=**&*-=====&&&&$#@+@@@#$%&&&==**&*:::==",
":;--;;=======-:,,,1<,,::;=;:-----=*&&%%###%%#####@#$%%%&&*;,,,,,",
"-&##&==**==-,1<<1111:%##&=;=&&&&**=::,1:%++%*===--=&*=:-=====;::",
"3*::#=:>,>>,;-:::<,:-#7$%=::::;:::::-::*@%=@&&%%%%&=****-;:&@%12",
"#+%#+&;::,2,>,,,:===%+:+=11:-=-===;=::=%+%=X#&******&&&&%%#+:&+%",
",-$+%&&=====-:,:===;-&+##&&*==--;;=;:--&@oXO++++######$%=-=$$$&,",
"=:<,<,;*=====:,<,,,<111>:;:>>;=====;;:=**&&****&&****=;:,,,-+#==",
";;==:::>:;=:,<11<1221332<<22,::;;:;-:;=-----=*&%&%#%%&&&**&**==:",
"=*=*&-:>:,<11343451,,,2368632<,:====-==**&&&&%%%&*===-::>,,:-===",
"=-==>:-:1211,>::;;=--:;;::,11,,,,::;;=*****--*-=&&&&&&&%%%%%%%*=",
"::-=&&$%&&&*=:,1,,<,:;:,<112421<,::,,<12446652<,,:::::,<1231,,::",
"%%%&*=;;::::::;;,1,:;::;==**&%%%%#@#&*--:,<121>::,,,,,,:-;-=*&&%",
"#@###%%%&%#++++#$$#$$#%#@+O+@#%%%%&&&&*&&&&*&&%#+OoXoooXXXoXo++#",
"@@+OOooooooooOooooooooOo+++@##@@##@#%#####@@@+@++++#$%%%%#####++",
"%%$%%*&%%&%%%%%%$%$%%#@%&**===*&%%$####$%&&*&&%**&&%&*&#%&*%#%$%",
"+OOXXXO#$##+OOo@$%%@X+oo@&%%###%&&&&%%%%$%$%&&&%##$%#$%&&%##oo++",
"&+:-+%%#+O+#%###@+++o=:O#%&&**=;::-*&&$+O%+%*&%%##%&*==%%%#@=%@&",
"&#$@#&&&**&&&%##%%$@O#+$*::=**%%#%*-:,:&#5%16534322462,=**$+$@#&",
"&%@@&*==&&*=:::=&%&-;&%-::;;:,,;=&*==:,;$#*<24331<<,1252,:=&#$&&",
"11>:====&&**&&=-:<,:=-:;;::,,,,,11,;:,,,:=<111<,:::--=:11,:,:::,",
",<11<,,:,,::=&%$$@@@%$%##$%&*=;::,,1>;--:***==-:=**=-:-=;;,,1221",
":;*&&%$%&==*&=-:;::=**&=;:,,,::-*&&%%&%#%*--*&&%%%***=--::;::;::",
"#OXoO#%%@++++oXo@++#$@%&&%++%=---*$@+ooooOooX  .+&&*=*&*%&%%$%%%",
" ..           ..      XX..XX.    Xo+++OooooXoooo.  Xo+#@+O++XX  ",
"####O++oXXO++#%%%%%$#$%%%&&&**&%%%%==*&%%%#$$##$$#+oooo+@#@++###",
"*=-:-::,:==:;--:::,>:=*&&&===**==;:,<,:-;::>:----*&&%*=****&&&&*",
"888q86qq6321,,,,,,<,,11,,:==::,<,,:;>,,,,::::,1221,,:=*==-:<2446",
",,,<<269qwe961,,,<<11,,,>:=**&****-,:::,1<1111112566456566666651",
"541,255689q88642163321,1221<,>--=;,,12<*@&@*:::>,,<<1<,,<232<123",
"31=*-26qwq976553342,*$*%:1,:===*==:::::&+6+*,14566543544552;*&=1",
"1:%:%=1221<,<1,:-:>:%#1O#*;>,,,:,1534664;#=<124532211<,,,1,%*;#:",
"62*o&1545365222<131<>$O=,,>:=&*=,346q9qq626669q966511<1,<11:$+*1",
"5268q76qqq665<,1<2236q6521146989999qew8621,,,>:<222111124642<178",
"1212212254421562211qq52226621<,:,644111,:,;::,11386213331111,::,",
"3224463<16666866qeq869976552><1267qwq989wtq86qtuieqqwe621<465986",
"uewq96666989q866636wwqeywrw841<139wrwttttuuuusdpippsdddssdhhjhsp",
"fgfituuw9www993260tsgzxkghdpt0779wisiewrusfdddgjhhhjhfhgdpsfhhjg",
"gptte96622qq0q621<6qadpw0qtuyw8570uuusglljjfzvzkzccccxvvcczgjjzz",
"uuew96558rwrdjgr6662,>;*:1666766quyttwwetijclhjdsdstqtuipspasput",
"qq96423468qwwq86896661<<<248w90euywweww99wwiiueewq9qwewwq98989qq",
"wq961,121<26664563,:*$+%-<655212667wyuuuussaiee9ww099890wrttruur",
"61=&-::><<1252568641;#:#-1221<,,,,,<2689852680rweeq986689q961286",
"5,*&=1669wyuutw962,,*+6#177666521112111,*%=&<26566666666666:=;:2",
"w4===6ww09weqwq866684=O*23<,:><12661,:-=#&:#<87qeete0qqq898:==-q",
"96=+149wqwrywqe0686652143621<,:,112665661++,69688qeeewtyuut6%%68",
"6611115668qtyeypdautuuir621<<1<,::=*-:;::-&:>>::<22260eeereew089",
",,:-:>,<1488qqeuiasiyewwwwqq90qweewq976661,::::,146qwyytrte06642",
"61,,,<1<:;,,,,>139966412>::-==**-::>,11,,,:*%%%==*=::==:,4qwwq86",
"&&%&%%%+++++@@@@+@@+@+#@+++OoXXXXXXX+##+++oXXXoXXooO++@@#$%$%*=*",
"%%$#+++++++@&=:*&*&&::**&%#+OoOO++++@@#@++++%%%%+O+#&=**;-%&%$$%",
"8998643wuututuiueuue0876664<:=-::-%%%*;:<1276624669eyissirwq99q9",
"eqq6961>:,111136wweetuuyeqwew996456999qq041112364556999qqqqqqqwe",
"5<,,>==::-;::,,<1<1666666687569890088979qwq646656226786512468987",
"3111<,,:::,,,113663432,7qww96676880qweqe9,8qqwwqwewwwqwewq94:,34",
"81*%*,18q623465662672=<*166898989wwyiiu6&5>qeee8899qwwrtuue2=;<7",
",=*;;8turreqeeqwe988,%6&5999wqetteewwq6<$<*8868tiyw88699q93*=**,",
"4<=*>9870wwew90wew9q7=O=389qeewqq86998q6=+1269653489880w997,+%<2",
"w8-@>3q866523222543421;669qwree8686766224159890w96321112321,,40w",
"589wq7<:,288qq864432256521112348744321<,,:::,1665442,253211<<<13",
",11:==::>26662133,,<<,14642366211<,1531,,,:;-:11<<1112551::,121,",
"64124542421>::::1,,<,>,,2224566676431<,>::::::,<::>:,122<>:,<<12",
":1236651,:,145221:===:121::<,<,:*%&%*=*%%%%%&=*&%%%%&*-:,:,,>,::"
};
