/* XPM */
static char *_f5d1fae5100427ff77f1f288ed6df89JcXk2K37iFnkTVQW[] = {
/* columns rows colors chars-per-pixel */
"64 64 231 2 ",
"   c #0E0A08",
".  c #170700",
"X  c #140A06",
"o  c #1D0B03",
"O  c #120D0A",
"+  c #1C0E09",
"@  c #15120E",
"#  c #1B120E",
"$  c #171511",
"%  c #1B1511",
"&  c #1D1A14",
"*  c #240C03",
"=  c #2B0D01",
"-  c #200F09",
";  c #320F00",
":  c #261007",
">  c #2C1106",
",  c #24120C",
"<  c #2B150C",
"1  c #2F180F",
"2  c #341102",
"3  c #3C1201",
"4  c #32160B",
"5  c #3A1709",
"6  c #32190E",
"7  c #3B1A0D",
"8  c #231611",
"9  c #281710",
"0  c #231A15",
"q  c #2C1B14",
"w  c #241E19",
"e  c #2C1E19",
"r  c #331D13",
"t  c #3A1E12",
"y  c #321F18",
"u  c #1D201A",
"i  c #25221B",
"p  c #26251C",
"a  c #2C231C",
"s  c #362017",
"d  c #3A2016",
"f  c #33231B",
"g  c #3B251C",
"h  c #33291F",
"j  c #3D281F",
"k  c #272620",
"l  c #2B2621",
"z  c #2D2A22",
"x  c #342621",
"c  c #382720",
"v  c #342B23",
"b  c #3B2B23",
"n  c #342E29",
"m  c #3C2E28",
"M  c #3C3125",
"N  c #34312A",
"B  c #393529",
"V  c #3C342B",
"C  c #3D3732",
"Z  c #3D3A32",
"A  c #431400",
"S  c #4B1600",
"D  c #451B0A",
"F  c #511700",
"G  c #541900",
"H  c #5B1A00",
"J  c #541F0A",
"K  c #411F11",
"L  c #631D00",
"P  c #6B1F00",
"I  c #43261A",
"U  c #472619",
"Y  c #45291D",
"T  c #512B1C",
"R  c #6D2000",
"E  c #732100",
"W  c #7B2400",
"Q  c #7D2805",
"!  c #692F11",
"~  c #432D23",
"^  c #4B2E22",
"/  c #552F20",
"(  c #443127",
")  c #4C3226",
"_  c #43342B",
"`  c #4B352B",
"'  c #443A2E",
"]  c #4C3A2D",
"[  c #533325",
"{  c #53362A",
"}  c #5A3628",
"|  c #533A2E",
" . c #5C3A2C",
".. c #453630",
"X. c #443C33",
"o. c #4B3C33",
"O. c #4D3F38",
"+. c #533D33",
"@. c #5A3E32",
"#. c #693C20",
"$. c #613F31",
"%. c #464234",
"&. c #4C4234",
"*. c #46453B",
"=. c #4C443A",
"-. c #4C4A3D",
";. c #544236",
":. c #5A4235",
">. c #554937",
",. c #54443A",
"<. c #5B453B",
"1. c #544A3D",
"2. c #5B4A3D",
"3. c #59513F",
"4. c #634335",
"5. c #694536",
"6. c #62463A",
"7. c #634B3D",
"8. c #6B4B3C",
"9. c #724A3A",
"0. c #65503E",
"q. c #7B503E",
"w. c #4D4B42",
"e. c #534C43",
"r. c #5B4C42",
"t. c #555346",
"y. c #5D5244",
"u. c #5C544A",
"i. c #5C5A4C",
"p. c #5C5F51",
"a. c #634D42",
"s. c #6B4F42",
"d. c #714F42",
"f. c #645244",
"g. c #6B5245",
"h. c #675846",
"j. c #64544A",
"k. c #6C564A",
"l. c #655B4D",
"z. c #6B5B4C",
"x. c #735345",
"c. c #765748",
"v. c #735B4D",
"b. c #7B5C4C",
"n. c #645C52",
"m. c #6B5C51",
"M. c #745D51",
"N. c #68644E",
"B. c #78604E",
"V. c #6A6254",
"C. c #696658",
"Z. c #736454",
"A. c #7C6354",
"S. c #796957",
"D. c #72645A",
"F. c #746B59",
"G. c #7B6B5D",
"H. c #76725D",
"J. c #786E63",
"K. c #7A7363",
"L. c #73756A",
"P. c #787769",
"I. c #832600",
"U. c #8A2700",
"Y. c #862A01",
"T. c #8C2900",
"R. c #942B00",
"E. c #9C2D00",
"W. c #97330A",
"Q. c #863D19",
"!. c #973B15",
"~. c #A22F00",
"^. c #A43100",
"/. c #AB3200",
"(. c #A6380A",
"). c #B33400",
"_. c #BA3600",
"`. c #B73A06",
"'. c #BD3800",
"]. c #C03600",
"[. c #C43A01",
"{. c #CB3C00",
"}. c #D43F00",
"|. c #A4441C",
" X c #BD4D15",
".X c #8E4F2E",
"XX c #B15629",
"oX c #AB5C36",
"OX c #B96131",
"+X c #C94609",
"@X c #DC4100",
"#X c #D84606",
"$X c #C74B15",
"%X c #D85819",
"&X c #E84602",
"*X c #F34900",
"=X c #FC530B",
"-X c #EC5F1C",
";X c #E4601F",
":X c #D45F21",
">X c #D07337",
",X c #F7702B",
"<X c #815745",
"1X c #845E4D",
"2X c #836252",
"3X c #8C6A56",
"4X c #856959",
"5X c #916452",
"6X c #82755E",
"7X c #AD7A4F",
"8X c #846C60",
"9X c #837365",
"0X c #887766",
"qX c #827B6D",
"wX c #8C7C6B",
"eX c #957A68",
"rX c #8B7E73",
"tX c #A67E69",
"yX c #C27C4A",
"uX c #7E8578",
"iX c #FF8338",
"pX c #82816C",
"aX c #8A826C",
"sX c #898574",
"dX c #968976",
"fX c #949379",
"gX c #A48B77",
"hX c #CB905A",
"jX c #D29B67",
"kX c #989281",
"lX c #A39983",
/* pixels */
"g.m n @.2 L R.I.H L H 3 : g +.<.x Z V >.( q * ; H A 3 I./.R W ^.^.E H E W H = = G A ; d ` a % | t 2 3 3 > = * * * * I @.8.M.A.7.",
"r.N.l.S.Y 2 P H S < ~ ~ ^ | +.>.( ( 1.l.2.q G E E.E.^.{.[.).R.).E.L 3 3 5 ~ ` < = = g j.m.y.<._ ` +.v.k.X.d 2 ; r [ 5.s.1Xa.V.v.",
"l.Z.j.B.c.U S A Y <.a.,.:.<.,.>.&.,.X.C ..q 3 H Y.R./.[./.R.P E P A q ,.r.r.+.) y ( D.qXpX7.u.1.x X.r.j.C.8.T t } q. .| g.f.l.l.",
"o.+.o.@.| ~ d g +.:.o.r.g.v.V.&.v a M a # # * L E E W ~.~.E.P 3 3 r g X...m b m b D.v.G.pX2Xj.n.%.N a ' H.b.9.} d d ~ 8.c.f.y.6.",
"~ O.| 0.:.+.V =.,.2.a.i.+.7.b q m x B % 8 9 * L W E I.#X*X[.P 4 g m N z f e f X.1.C.&.o.:.4.r.n.,.] =.b ,.C.a.r L W H g k.| b m ",
"+.2.+.7.` I o.n ~  .+.K.+.g % x v ~ _ & + , = R.).R.E OX$X_.I.S ( &.v f $   n %.Z.K.V.qXdXdX2XqXP.C.e.X...M.:.A W ).E 2 ` u.n.n.",
"` b a q t t _ =.X.@.j.qX<.i X.6.' h _ v , r = S R.R S Q ^./.R.F b b O.,.0 w p f r.wXS.gX5Xc.aX1XqXL.u.X.m ~ d S P E W 5 :.+.+.o.",
"g.X., ; A = , f l ( ` m l =.y.,.>.2.2.M w a 6 ; H S 3 W I.W G 4 a f a.( x M e O 8 _ a.b.c.:.H.3Xl.uXn.w f.8.q = S H H 6 <.a.qXl.",
"` q A W R.H * b X.Z N n X.1.M ~ h v ' b p i f * = o 2 E T.E 2 f b _ b +.x 1 > * = : x ) $.8.K.j.2.p.p f.a.^ A 3 S 3 3 A y +.r.f.",
"f d A E.^.E 3 q ` 1.f.+.X...f f m 1.t.=.w.Z # * S 3 A I.W G 4 ` z f _ y S W E H ^.R.S A t +.3.+.` n X.x.d ; H T.E.W E.R.S y ,.m ",
"x < = L W E.R.L r ( ` f e b V b ) X.Z b N k + o A A ; H P ; q f # 8 g 4 W /.#X%X,X@XE.T.3 s ( ~ 0 N i.b.{ = S E ^.R.I.R.P > c V ",
"9 t * A H T.E.I.A f ] X.m f B a 8 8 f f q x g * ; S S L F o , 8 b ~ ) 2 3 Y.>XjXjXiX[.E.S q 1.f.l X.K.rX| 3 I.R.^.W W E E.R 2 , ",
"G d $.4 = P P P A ~ | j.b # j ~ f f >.+.d r q y ; I./.I.; < < q _ [ 4.6 ; G ! 7XjXOX}.^.L t F.tX+.+.9Xm.| = S P E E L ).[.{.[.R.",
"E.3 V ( 7 2 G A t ) ~ f $ $ 8 b O.:. .Y 4 3 2 : = L R.I.; , y v i % 8 g 2 3 G #..XXX[.R.E 2 v.eXb m K.+.2 G L H S A S T._.&X*X}.",
"I.A o.f.) t 4 4 , # , 8 p B i w n g.4.g 3 R 3 o = 3 H S > < d X.C v 0 & q ; S J |.|.].P A < r.gX:._ <.f 2 W T.G * * = H L W.(./.",
"P 3 f ( s 1 q r * 2 * , ' >.+.V w B | g = = > y g t K /  .[ [ 2.,.~ M q + * 2 H ^.R.W 3 * # <.dX2Xy.gXx.; S L 3 * , 3 I.R.@X[.E.",
"E.T.4 g y + < < 3 R 3 q ` x.:.2.+.M w q ~ ~ ~ ' j q f ` ( 4.y.P.P.h.` ;.b * = 3 H L S = < I :.6.z.z.dXwX5.> = > r t 2 L ).$X{./.",
").R.A ~ d X , > = ; = ^ >.b e 8 q 8 % $ a %.V _ q b p v m a d ` ` v ~ ` :.~ o o 2 I.Y.G > g ` 6.B.y.F.:.) @.Y d U ^ > 2 P E.R.E.",
"I.W 3 8 < ; * d q . q b q * * q e w @ O @ z %.1._ ;.O._ Z.u.c | ` O.Z +.;.b , q 2 G I.L 5 ~ <.+.k.2.' [ { } a @.5.~ q = H W E E ",
"T.E A A ; L A f > * : q = G A : f f % & w p v ( b ( x w _ f q s.b.b.j.r.` ~ e 4.} A S 3 4 =.y.9XwXo.' 6.x.8.f | ~ e : G T.E A W ",
"E E T.E.H A A f r 1 , + = L A < q 8 l ' x B u.b y : * = H L S g 8X2X6.C.y...e r.8. .K U [ r.j.r.z.r.V i.G.6.a e w 0 6 3 E W S F ",
"3 2 R R.H = b ~ g , ; = ; H A o 8 # f ) a z Z q 2 H E T.[.}.).G m f.j.V.a.,.z :.+.` v.2.:.6.wXqXP.X.w i v +.r.X.i O , = G G = = ",
"t * S L 3 f 0 g < S W W I.Y.R = + # f B o.p # 2 S ).=X&X@X#X/.H o &.G.l.>.<.B v.9XD.F.B.8.8.4XK.X._ V w # m 9XJ.=.X.f t = = q r ",
"i , = = s m 8 o S ^.).{._././.L 2 = + f _ w * H _.>X>X+XT.E.~.R.H : h &.1.l.~ 0 f M _ eX1XeXlXH._ L.pX2.n X.<.` r.O.o.) q g a.*.",
"v % e V X.7.` = G [.-X,X=X}./.I.Y.E.L * , e = A P ! |.'.T.I./.{.R.5 &.&.,.] 0 & f b b ~ V w b e *.J.pXH.;.m.sXP.qXD.6.+.k.A.A.u.",
"V % n N N B 4 G W XXyXhX>X/.T.R./.).I.; * = 3 2 L W E./.E P P ~.I.D -.Z V m e _ r.C.u.' V v _ i N y.K.0Xn.r.K.sXP.kXa.G.K.8X9Xj.",
"_ p v ( X.f 3 T.R.!.Q.oXXX[.T.E P I.W G G E Y.R H P W G 3 E L E F < % % i h ( 7.0XD.,._ _ M ,.o.N N.fXfXdXO.m.J.n.n.v.n.j.2XZ.V.",
"o.' 1.f.v.{ = H E E.I.(.(.).W S A S E ^.R.R./.^.T.R G * ; T.R.S * - 8 M ' y.r.L.qX,.y q h o.l.F.x &.aXwXqX*.,.+.x f @.( ` +.+.O.",
"+.b X.=.F.4X7 3 P T.W I.I.I.H W G A A T./.P W W E L A o ; P T.W G * f &.&.2.r.w._ e . , g c.C.2.m f a.M.j.u.K.9XX.f.b.v.G.z.f.O.",
"( # w X.' [ ^ ; A G 3 ; A H H H L H ; H W G P P L H 3 > * A R R.E = < :.j.V.,.<.~ = H A m <.o.&.&.X.f sXK.+.9Xm.a B ;.f.g.f.4XM.",
"i @ v v f < : : , q Y t > ; = * A ; = 3 3 A E E T.H S 2 , ; R P S = f 7.2.n.+.t 3 S E S d o.B.C.H.V.z &.b.v.j.=.;.j.<.<.a.c.8.^ ",
"# % f M q * A ; o y y g g r < + + o * : y 5 3 S L L E G * A T.T.A 1 X.b ( &.~ 3 W E.T.H = q o.C.j.g.r.x V s.7.b ) 4.4.` :.@.( f ",
"& 0 ` ( , o S 3 * , g ` f < : ; * X - , f g t 2 3 3 P H = S E.E.L > i i a ( ^ 3 H W H 3 2 = , O.r.j.n.,.' g.k.+.s.4.8.k.j.<.a.f ",
"a b ~ 5 G E A o < 8 j d o ; R I.G * e % @ q ~ ` g ; A 3 o A R./.L 4 i k X.7.~ 3 W W S ; P W L < ] :._ ( ' k.g.g ~ ;.G.0XqXz.G.,.",
"n m t 3 ).&X{.T.3 A * X 2 L I.E P A e z w _ X._ ,.~ * > < = L I.S ` -.-.X.<.D L '.{.'.W R.).I.3 q q 8 v B ~ y o + q o.b.,.+.>.y.",
"i + = W +X$X@XE.T.E.L H W E.E S ; = q w % ~ a i o._ 9 f ^ 4 3 A U ` e.*.e.g 3 T.&X#X/.L L E P = < < y ^ ) b 2 L E 2 b +.<.,.] %.",
"@ : A L T.E.~.E.T./.T.).&X[.Y.2 , , 0 % w 8 X.;.e % p m | 8.@.@.d.a.+.4Xf.2.; G ^.R.E.L S G 7 ` I I ) { g y 3 T.~.L < 7.D.j.V & ",
"w g = L E.^.I.L G E H E.$X).T.A + % & O # 8 x +.& x M ~ :.B.7.8.K.6Xf.u.k.r.4 3 W P H T _ <.j.D.Y ~ ~ b > = ; H T.P < f.0XA._ % ",
"j.6.2 3 W E.U.A = 3 3 S E.E.E ; O i V a 8 8 p ` b a f ' ] ~ _ m =.3.V ~ ` m q 4 3 5 :.g.f.2.l.A.} 5.j 3 L L H E.~.F ~ t.l.1.-.=.",
"O.<.d * P R G 2 I I > 3 E H 3 , O i v h 8 # M +.h q a :.6.a z p &.z.' o.f b b 0 # % o.` m 0.V 1.v.b.g 3 P L {.*X{.L b | 7.c.;.V ",
"w v a d 5 5 4 ^ 7.+.[ t = > y O & 8 # % # @ w ` v _ o._ 0 w v a p *.e.X.' w # e @ # q a f v b ' n.8Xx.> 3 W T.(.).W r 1.y.h 0 O ",
"N _ n ` ^ T c.3Xl.:.Z.k. .) V & % e v @ w z i w f m V w @ $ n %.V z i q 0 % @ 0 w @ i o.m.y.g.kXeX0Xg.> S '.+X/.E.E g A.Z.2.% % ",
"w V n m a.@.f.y.b &.*.i.h.y.=.m @ w i a -.*.*.v @ w %   @ a V 1.V w   @ O   O 0 0 # w m X.V | s.wX6Xz.t 3 W (.E.I.A 8.r.Z.s.a % ",
"w m v k e.m.| f b X.Z =.N.l.:.f O a V b M M x _ i w   @ a ` h q 8 X   $ x a & % & & p w $ 0 w ] A.S.2.{ 3 F I.I.G d 8.+.j.k.a $ ",
"% a w i w x q f f ~ b j t.N.6.8 8 q v v X.M f M M f & & _ V s ; S W W G y | x @ i V =.B v % i =.g.6Xg.| t H E.E.W 3 ^ _ V ` x w ",
"m <.2.o.' q o = * , , ~ 4.&.b % i x q f b b ^ ' ( _ ' & i M > S I.%X,X@XH q w & *.P.P.f.X.i i v ` | b v t 3 W R.R.R > m x l.H.,.",
") :.f.2.` 6 S /.E.A * 8 # 8 e 0 y.u.N n b ;.>.Z.F.t.p.n % 8 ; E >XhXOX{.W * $ e.%.n.g.6.=.X.f w 0 w & ~ y = G W R.I.2 g.f.v.v.:.",
") <.6.d = A T.}./.}._.3 q x 8 0 i a ( m f ( 3.N.1.O.&.z O , = R .X7X7X>X&XA & X.y I ) y.&.l.D.a.=.B N f.g * A I.I.H 7 4.b.N.N.| ",
"] o.q . P G '.R.).#X{.^.A g y > 2 > 3 3 * , a V x b ( &.0 + = S ! .XoXoX`.L q { U t o.n.2.a.V.k.a._ y.+.: ; H P H D  .9.8.,.X.` ",
"` f , = H A T.'.R.W.'.).W q : 2 H A T.T.H * * 2 A < a 0 O X = A R !.|.!.'.H 2  .9.} <.<.j.0.F.1Xx.~ n f = H E I.2  .4X5X4.a.j.,.",
"Y q o * * ; L ^./.I.T.T.W < < = ; = E T.E.L P T.E.H X X 0 y * 3 I.~.E.U.W 3 7 b.gX1X8.x.3.x.Z.sXeX2.p f 2 2 S G 5 ( j.S.5.~ b I ",
"< o < t < * 3 I.U.F L P F q d Y Y < ; L T.)._././.P = q g.z.t = H P F A 2 4 o.K.dXdXdXdX0XeXx.uXdXwXV 1.a.+.t t m q ( 4.| d : + ",
"o = : ~ g < = A 3 > ; ; < , f <.d.b > A H I.R.W U.P 2 ~ ( +.) 6 < y d e c <.x.1X1X7.i.j.a._ <.,.i.sXf.1.,.K.sXG.' w i 2.9.y A L ",
"= = d @.` d t q ~ b  .[ q o , q ( w.6.6 * H E P G 3 d y f q g ^ x v u $ Z g.c.7.l.Z.m.o.g r d a.P.H.k.l.+.| @.g.y.z O q 1 * A H ",
"E G g ` y < q 0 & & ' q * * o * q O.~ 5 ; A S 3 * 8 f < * : f 7.j.N & V j.c.4Xf.:.,._ < 2 A A t | +.O.G.b.5X<XG.J.m * ; A S A E ",
"/.T.S 2 G I.G % i k i , > A G R E S > A S = t y q O + 2 H E S y :.X.& ' 2.<.a.f.3.1.b 3 T.).^.A q g =.rX9.4.6.F.u.t G T.)./.P T.",
"R.E.L R {.&X).3 & m x , 4 S E.@X*X[.R.G ; t f a h % = W '.[.R.G : i l X.b w f ` ) g.^ 3 T.).^.R > e ;.K.0Xb.2X8.~ ; H *X=X*XR.E ",
"E W L (.;X;X}.W H : 8 + > G +X,X:X&X@XH 4 ~ v | V 8 ; R.{./.[.E.3 8 n j.6.1.;.' V } r = P U.E I.P > o.| K.qXl.` q = L XX>X X^.^.",
"L H S Q.oXOX[.}.@XT.* . = H Y.Q.|. X).E U ;.m ~ f 8 = A T.T./.E.S q g ~ y.z.5.7.2.> ; 3 A S L }.).H q g y g b q 3 L A L !.`.E.P ",
"S 3 2 L W.R./. X{.E.3 = L S E E.W.R.).E b ` V ( f g 7 3 P E W E S < < y r q { Y < A T.W 2 3 L T.~.E S 5 > > < X ; H H H R.R.T.S ",
"` I = H W P H W /.).^.G S S G I.R.U.I.J O.o.v V z q g t 5 A A S G * 3 L H 3 2 3 3 S W W A 3 G I.I./.^.R.R H G = = ; 3 D H L K y ",
"~ +.g ; 3 S S L E.{.[.I.2 2 5 3 G S D e w & 0 f v 0 y d 0 , , = A 3 T.[.[.R.R L R 2 S G 2 7 2 H L T.E.[.)./.E.L > < ( m.D.g.( f ",
"a.x.^ : = L G L I.E.E.R.3 q f I t g f O % B M ( d , , , q , o * = H T.[.{.E.I.L S = A 2 s ` } 5 A L H T.R.T.I.E L 3 b r.m.v.=.X.",
"8.f ~ y ; W ^.T.L I.I.I.2 b ` f.` w & k N V q 8 , , * = > , * A R S H I.~.R.H 3 ; L A r ` 0 e } ; G G E L L H A A ; e +.C.k.r.u."
};
