/* XPM */
static char *_445560cf9d642598e409eb8a3c59a8aEjD1IuIrbqXeBxBU[] = {
/* columns rows colors chars-per-pixel */
"64 64 55 1 ",
"  c #6D695F",
". c #706C61",
"X c #757165",
"o c #777368",
"O c #7A766B",
"+ c #7E796D",
"@ c #7F7B71",
"# c #827E72",
"$ c #858175",
"% c #898476",
"& c #8A867A",
"* c #8E897D",
"= c #908B7F",
"- c #938E81",
"; c #969184",
": c #999486",
"> c #9B9689",
", c #9E998C",
"< c #A19C8E",
"1 c #A39E91",
"2 c #A6A193",
"3 c #A9A496",
"4 c #ABA699",
"5 c #AEA99B",
"6 c #B1AC9E",
"7 c #B5B09F",
"8 c #B4AEA0",
"9 c #B6B1A2",
"0 c #B9B4A5",
"q c #BBB5A5",
"w c #BBB6A7",
"e c #BDB7A7",
"r c #BEB8A7",
"t c #BAB5A8",
"y c #BCB6A8",
"u c #BDB8A9",
"i c #BFBAAC",
"p c #C1BBAB",
"a c #C1BCAB",
"s c #C1BBAC",
"d c #C3BEAE",
"f c #C5BFAF",
"g c #C3BEB0",
"h c #C5BFB0",
"j c #C6C0AF",
"k c #C6C0B0",
"l c #C8C2B3",
"z c #C8C2B4",
"x c #C9C3B4",
"c c #CBC6B7",
"v c #CCC6B7",
"b c #CCC7B8",
"n c #CEC8BA",
"m c #CFCBBC",
"M c #D0CBBD",
/* pixels */
">3cllclbk45yg*6w6>dkcffxd-ahkcbxdkw:fkklwkpk2*+6fy,yffn48lklkkcc",
"6Xcklckccvd-*3dulc:wcxlk81ckfhblhdx;6pkx9dcckc;bk6uduuh66klkkxcl",
"d%wvclcllxn$kcdfmsd<6464:6kuudkcchdue6hlyxbcbk>bby9flkk58klfdxxk",
"c<&,:dclclc41xxcxc6p65842edppdlbsddcluuk9hcccn>u4429kkd5ikfkulcc",
"cw=y9:-sccxh;ckkb8wcudffw2lfkfcn56lxkke;ulllvlh#dpsefkp9slkdskcc",
"i8;nck9,6ccd+fkkc4kffxkkk58bc6w6u16jfl2wlkf5<9w&blcxpkpupdfkddkh",
"c19hcxbd6uce$vpd4<fpukhkch3u6kflxb4-ew2wwu9ecioulxlxs<5wwklhhkkl",
"k=chkxcc618=8d5;wcccdsxkcn49xxfflccd&=wf9ppflb$chlck2fc58fckkkkc",
"s<cddfxxy96>5;1dbcxcs8klcn<26uwwplkk,8wwadkfxn@lhhkuuu9=9ffxkukc",
"4dsudfkhwklcx31dshsuwsw9up:4uuuwedc16hu9kkkfkc4>shkllw9*4kklwwcd",
"df99lkkuhlcxb9<dffhwkcsdd,2cxclkkc,4lkkwkflkklk*uhkf8yc9+he6*;uu",
"hh99kxxwcdllcw5cxfkwlcccu,uxlcxlc5>cxllp6lxfkkd$du9w9lcv:.*,hu-;",
"&$:dllflldflw=sku22hkccly,kxlkxct4d9kkduk9e5<2,;hkklwccv+ucchlb2",
"nk1>ulkksw9w14d62kf5wlxxh45ckcxb5dcs6upkdh9xvu6;6fkkufku&uxkkkxl",
"kkx4,2kl6565>4hkkukk9dhxk54xk69w6dccw5fxdsfccckd269kkpu23kkkkkfk",
"kkxbw6#62fcck1wlkhlv86flc92969wwflkdy8uhldufckcds9uyf6u,9kkkffff",
"fdkcn;51fklcxd3whlllc2wev81udfefklks45ddupfffxbukxkf>usy2khjfpfk",
"pkdcw,cdldkflld6fkkchh-3<&9ldckdccs-4kdfdpdfslc8pkkl2ddf2wupudkd",
"fdwk>ufkkkkh9dl4dxkkhy6fc2:kkkcude=;>6wydddfpfy541962fuf56dlkfdw",
"yfskl&kdffseywfw5llkkwlllk;<96691;wjp425w6499pkcvf<*sppl<sflhhlk",
"flkkbOkkpyypd9pb14ww69lclc4<54*6dlldkhkd55yudlfdlc5kwudl8wffkkkk",
"keexkOlfysdfd9ww6wpdy6flls9hlc64ckcuksdkddu8699wek<dkfpsh4kfkfhf",
"dl94&3lkfhfj6d4ykxlxxewccklxkcw:jks4hlykfkl15kdkk58xkkwyk6ysx9pk",
"kklc5&2lkw663k4pkkdlxl3=-;;1sc9:cp;lxcu9ww62dxcxk56wdfuwd6kcl5ul",
"kffdkb1:w9klhw6wlluxckl=nvcd1uw1w>pxlhykkk92vlkxd9lk2sxku6fc98kk",
"dfhfhck>5dflck5shkuklhd:cxccx,442;ddduslcxw3klxutwkls4hdpdkfw8hf",
"ddsdpd69lkkhyd8wkkdhkc49fffcudkvn1dkk8elcxk48xw9wdkh86ffdfewf6wd",
"fdfsphu,dfpyuywwfkfkkc96hpflylkxv,du4w99lkxs<99fplcp&358s85df5yk",
"kkhkkkk:xpuf5wk2pkkdyc5hd6clylkdk>swupx96klv<udlfhc:6wwu54s168yk",
"dkkppfu;fdfk-kh>ukkw5lydu6lkhks52-sdkhkcy<32;uhhh9>5kkkxcuekuw8p",
"xlduwu91pdda4d9::s821,;<>2ufkf5ucw,udkklkt9c4;w8,>pcxlkce9kxps6u",
"xle9459u64we9fkc-*<wcbfld3,63w2cccv56ckkhwulc8:6h<9hlvku5ccxlh6f",
"kx8wkkdu9w2pdaakn+blhlkkkcku&4ukkksd8wcll9ckkwwjs<86p966kkcxcd8u",
"kk6wcclxcp9>9frfx*xkkffhhfcx,skkkpywd9469wfkysku9yl4kky49u9clusd",
"lu>1dcks6hxk,&<56-vkffplpddw3kffswduky9l6kkkl1kf9ll5lkywkx6wcs9f",
"k2kd8564xnccs<vcd2uhdsfuddyc,4dpeppu86dk99fl4hcp6wp8khs9efd2kd4d",
"1sxcln4bccxnk1bxxc2yhksfpdfkk&cufdkw69kkl9dp8kxlw2wwfcu5ufkydkb3",
"s4llcc4cxxlck2wwux96lkkkkkkdu&ffdklu4ukkkw956chw42336995fff6dlkn",
"6;9wcvww6126k-wwedp4fkhkkhkk2<99fce91lddfd8k48<3dvvyw>5wfda8cckc",
":sfw1>-16sds-,vlllsweldslklc*:>>>*w68kfdduefddu-bxxnw,ku6pw9kcl<",
"xpduxk4cxxcc*xlclsydud;cbck66kxkkc-2966auw7dcc64vkcbu>ckl6wlkln#",
"kfuklc1chkcx*xhlkldkfx62f9-4lkcckw>kklh64ckfcl>ccckc1;k925>88deO",
":shdfh1dkfch-fdkdllccl9<39;wccxxcp-ljkkf26udb98ccl85i91yxc89w<,,",
"p59ddd4kclkd4wlpeppkcc4ckb16khkdff3ffjfu4<6dv8wcc89ccu9fkcdud66c",
"lp5xlbu,<<6dwlfwy9plxc*clc9scckd5peepppf3ksxxb:66wufc4ddxkdxw9xk",
"fd5cccw59s3>klkuuhdccb&ckchhlccc8,afar9r4vfcn,&2ukxc2wlkM>hlk9dk",
"l95vdewwlxc49lxh4flkdl-xbccxcccpu6*pfeuw9cxl2>g*>2=-gkfn44llk6ef",
"dwsffle6ufhf,kkf4sxcs,&1wkxkh66scct$<4<64fln4uflubn&lpkc2xcxdd1d",
"pfpkcl96wfjd8fdyw5ws1sbx48ww65nbbckh#>yfusux6hklkcd-lfp95ccxxd,5",
"1,6ckk24fkfjp9dcns25wcxcfxw,dccbbcch;bclkx898dlfhck;ukk19nbbk4<<",
"t61:5d;sfffk99hcfcc56xclcck6xkccxcnk*bxckx4wdllxdduw6pk9:45<,5hh",
"clh1w28lfpdj4kcllcc94clkccd6klkkkcck>nbbcy-nccklcv4peafxyud#sclc",
"kck,49t5uffp6cccklf,*,1pkcwskhksxxkk24;,1,94pxkxduy;afpukkc<,bcx",
"cnn*wklk59uw9fcckp*>ccn4ddyw152-*<ud#4llddcs5we59xch;9ekbck<6xkl",
"cnc=wkcxl93cadlkc;$cfdkw<2<*328vbf4;&bckckcknw3cnbccy>plble=bcck",
"f62$6k6445-kwwcxdXdxeuddhy,wvbcccb4$klxxxffln5clxcbb86kcns<uxccc",
"1swu-6dwys<443,5lO1vddfklb2ylkkccn$elkxclkwvc8cxclcn,cklc38bcxkx",
"pccn2kldccdydfd:X$,2bxxlcc28dldkcn ckfxlxf6<dw-2<1fk6ukcn4ecccl6",
"klcw3lupkxcscb54yce=6lxdfd4wpkkhcl*7ldfkklxt-;dtuu4k*9pxcv*flkl>",
"pfv5tuykhcxkcx,wnncs:3wpek5ukkkklxk#uklkxxlb5kxkkcg$<lclkd;<224u",
"cky4fhkkkcccc6>vcnbcc4wccck<u9whxcwXchfkclff6pjd8n15chkfu;$&skvk",
"<w1yllckkkccc94ccccxxxwclcn*253<62>4huww986erppw6c*dhkks&2b*2<1,",
",&kfkdkvvlccn92vccbhhnwudn1*schw4 2hhdpd5pwfaaeuwk>ydhcc&kd849uy",
"u#vdkxd86hcfc4,fkcxdkfdcy2,6pbcckx+lkkkc9cw:6d9459;8hkvw8lklfhbc"
};
